<?xml version="1.0" encoding="UTF-8" standalone="no"?>
<!DOCTYPE svg PUBLIC "-//W3C//DTD SVG 1.1//EN"
 "http://www.w3.org/Graphics/SVG/1.1/DTD/svg11.dtd">
<!-- Generated by graphviz version 2.40.1 (20161225.0304)
 -->
<!-- Title: dependencies Pages: 1 -->
<svg width="858pt" height="290pt"
 viewBox="0.00 0.00 858.00 290.00" xmlns="http://www.w3.org/2000/svg" xmlns:xlink="http://www.w3.org/1999/xlink">
<g id="graph0" class="graph" transform="scale(1 1) rotate(0) translate(4 286)">
<title>dependencies</title>
<polygon fill="#ffffff" stroke="transparent" points="-4,4 -4,-286 854,-286 854,4 -4,4"/>
<text text-anchor="start" x="404.0091" y="-42.4" font-family="sans-serif" font-weight="bold" font-size="14.00" fill="#000000">Legend</text>
<polygon fill="#ffffb3" stroke="transparent" points="191,-10 191,-30 211,-30 211,-10 191,-10"/>
<text text-anchor="start" x="214.629" y="-15.4" font-family="sans-serif" font-size="14.00" fill="#000000"> &#160;Declarations</text>
<polygon fill="#8dd3c7" stroke="transparent" points="304,-10 304,-30 324,-30 324,-10 304,-10"/>
<text text-anchor="start" x="327.7251" y="-15.4" font-family="sans-serif" font-size="14.00" fill="#000000"> &#160;Module</text>
<polygon fill="#80b1d3" stroke="transparent" points="390,-10 390,-30 410,-30 410,-10 390,-10"/>
<text text-anchor="start" x="413.7812" y="-15.4" font-family="sans-serif" font-size="14.00" fill="#000000"> &#160;Bootstrap</text>
<polygon fill="#fdb462" stroke="transparent" points="487,-10 487,-30 507,-30 507,-10 487,-10"/>
<text text-anchor="start" x="510.6732" y="-15.4" font-family="sans-serif" font-size="14.00" fill="#000000"> &#160;Providers</text>
<polygon fill="#fb8072" stroke="transparent" points="583,-10 583,-30 603,-30 603,-10 583,-10"/>
<text text-anchor="start" x="606.7258" y="-15.4" font-family="sans-serif" font-size="14.00" fill="#000000"> &#160;Exports</text>
<g id="clust1" class="cluster">
<title>cluster_AppModule</title>
<polygon fill="none" stroke="#000000" stroke-dasharray="1,5" points="8,-70 8,-274 382,-274 382,-70 8,-70"/>
</g>
<g id="clust2" class="cluster">
<title>cluster_AppModule_declarations</title>
<polygon fill="none" stroke="#000000" points="16,-78 16,-130 138,-130 138,-78 16,-78"/>
</g>
<g id="clust4" class="cluster">
<title>cluster_AppModule_imports</title>
<polygon fill="none" stroke="#000000" points="146,-78 146,-130 374,-130 374,-78 146,-78"/>
</g>
<g id="clust6" class="cluster">
<title>cluster_AppModule_bootstrap</title>
<polygon fill="none" stroke="#000000" points="107,-214 107,-266 231,-266 231,-214 107,-214"/>
</g>
<g id="clust8" class="cluster">
<title>cluster_NgxResponsiveStackTableModule</title>
<polygon fill="none" stroke="#000000" stroke-dasharray="1,5" points="390,-138 390,-206 842,-206 842,-138 390,-138"/>
</g>
<g id="clust9" class="cluster">
<title>cluster_NgxResponsiveStackTableModule_declarations</title>
<polygon fill="none" stroke="#000000" points="622,-146 622,-198 834,-198 834,-146 622,-146"/>
</g>
<g id="clust12" class="cluster">
<title>cluster_NgxResponsiveStackTableModule_exports</title>
<polygon fill="none" stroke="#000000" points="398,-146 398,-198 614,-198 614,-146 398,-146"/>
</g>
<!-- AppComponent -->
<g id="node1" class="node">
<title>AppComponent</title>
<polygon fill="#ffffb3" stroke="#000000" points="129.9399,-122 24.0601,-122 24.0601,-86 129.9399,-86 129.9399,-122"/>
<text text-anchor="middle" x="77" y="-99.8" font-family="Times,serif" font-size="14.00" fill="#000000">AppComponent</text>
</g>
<!-- AppModule -->
<g id="node2" class="node">
<title>AppModule</title>
<polygon fill="#8dd3c7" stroke="#000000" points="210.6571,-190 207.6571,-194 186.6571,-194 183.6571,-190 127.3429,-190 127.3429,-154 210.6571,-154 210.6571,-190"/>
<text text-anchor="middle" x="169" y="-167.8" font-family="Times,serif" font-size="14.00" fill="#000000">AppModule</text>
</g>
<!-- AppComponent&#45;&gt;AppModule -->
<g id="edge1" class="edge">
<title>AppComponent&#45;&gt;AppModule</title>
<path fill="none" stroke="#000000" d="M120.8512,-122.2228C120.8512,-142.3652 120.8512,-172 120.8512,-172 120.8512,-172 121.4806,-172 121.4806,-172"/>
<polygon fill="#000000" stroke="#000000" points="117.1458,-175.5002 127.1458,-172 117.1457,-168.5002 117.1458,-175.5002"/>
</g>
<!-- AppComponent  -->
<g id="node4" class="node">
<title>AppComponent </title>
<polygon fill="#80b1d3" stroke="#000000" points="223.439,-258 114.561,-258 114.561,-222 223.439,-222 223.439,-258"/>
<text text-anchor="middle" x="169" y="-235.8" font-family="Times,serif" font-size="14.00" fill="#000000">AppComponent </text>
</g>
<!-- AppModule&#45;&gt;AppComponent  -->
<g id="edge3" class="edge">
<title>AppModule&#45;&gt;AppComponent </title>
<path fill="none" stroke="#000000" stroke-dasharray="1,5" d="M169,-190.2228C169,-190.2228 169,-211.7269 169,-211.7269"/>
<polygon fill="#000000" stroke="#000000" points="165.5001,-211.7269 169,-221.7269 172.5001,-211.727 165.5001,-211.7269"/>
</g>
<!-- NgxResponsiveStackTableModule -->
<g id="node3" class="node">
<title>NgxResponsiveStackTableModule</title>
<polygon fill="#8dd3c7" stroke="#000000" points="365.6769,-122 362.6769,-126 341.6769,-126 338.6769,-122 154.3231,-122 154.3231,-86 365.6769,-86 365.6769,-122"/>
<text text-anchor="middle" x="260" y="-99.8" font-family="Times,serif" font-size="14.00" fill="#000000">NgxResponsiveStackTableModule</text>
</g>
<!-- NgxResponsiveStackTableModule&#45;&gt;AppModule -->
<g id="edge2" class="edge">
<title>NgxResponsiveStackTableModule&#45;&gt;AppModule</title>
<path fill="none" stroke="#000000" d="M182.6199,-122.2228C182.6199,-122.2228 182.6199,-143.7269 182.6199,-143.7269"/>
<polygon fill="#000000" stroke="#000000" points="179.12,-143.7269 182.6199,-153.7269 186.12,-143.727 179.12,-143.7269"/>
</g>
<!-- ResponsiveStackTableDirective  -->
<g id="node6" class="node">
<title>ResponsiveStackTableDirective </title>
<polygon fill="#fb8072" stroke="#000000" points="605.6032,-190 406.3968,-190 406.3968,-154 605.6032,-154 605.6032,-190"/>
<text text-anchor="middle" x="506" y="-167.8" font-family="Times,serif" font-size="14.00" fill="#000000">ResponsiveStackTableDirective </text>
</g>
<!-- NgxResponsiveStackTableModule&#45;&gt;ResponsiveStackTableDirective  -->
<g id="edge5" class="edge">
<title>NgxResponsiveStackTableModule&#45;&gt;ResponsiveStackTableDirective </title>
<path fill="none" stroke="#000000" stroke-dasharray="5,2" d="M294.529,-122.2228C294.529,-142.3652 294.529,-172 294.529,-172 294.529,-172 396.1474,-172 396.1474,-172"/>
<polygon fill="#000000" stroke="#000000" points="396.1475,-175.5001 406.1474,-172 396.1474,-168.5001 396.1475,-175.5001"/>
</g>
<!-- ResponsiveStackTableDirective -->
<g id="node5" class="node">
<title>ResponsiveStackTableDirective</title>
<polygon fill="#ffffb3" stroke="#000000" points="825.6036,-190 630.3964,-190 630.3964,-154 825.6036,-154 825.6036,-190"/>
<text text-anchor="middle" x="728" y="-167.8" font-family="Times,serif" font-size="14.00" fill="#000000">ResponsiveStackTableDirective</text>
</g>
<!-- ResponsiveStackTableDirective&#45;&gt;NgxResponsiveStackTableModule -->
<g id="edge4" class="edge">
<title>ResponsiveStackTableDirective&#45;&gt;NgxResponsiveStackTableModule</title>
<path fill="none" stroke="#000000" d="M728,-153.7772C728,-133.6348 728,-104 728,-104 728,-104 375.6119,-104 375.6119,-104"/>
<polygon fill="#000000" stroke="#000000" points="375.6119,-100.5001 365.6119,-104 375.6118,-107.5001 375.6119,-100.5001"/>
</g>
</g>
</svg>
